<?xml version="1.0" encoding="utf-8"?>
<!-- Generator: Adobe Illustrator 26.5.0, SVG Export Plug-In . SVG Version: 6.00 Build 0)  -->
<svg version="1.1" id="Layer_1" xmlns="http://www.w3.org/2000/svg" xmlns:xlink="http://www.w3.org/1999/xlink" x="0px" y="0px"
	 viewBox="0 0 1129 313" style="enable-background:new 0 0 1129 313;" xml:space="preserve">
<style type="text/css">
	.st0{fill:#FFFFFF;}
</style>
<g transform="translate(0.000000,313.000000) scale(0.100000,-0.100000)">
	<path class="st0" d="M110,1535c0-1281,2-1445,15-1445c8,0,104,14,212,30c108,17,200,30,205,30c4,0,8,274,8,608v608l243,17
		c133,10,261,20,285,24l42,5v195v194l-82-6c-174-12-404-25-445-25h-43v410v410l93,1c50,1,214,4,362,8l270,6l3,188l2,187H695H110
		V1535z"/>
	<path class="st0" d="M1732,2798c-83-472-248-1466-311-1863c-97-614-104-665-97-672c6-7,388,35,396,44c3,2,21,117,42,255
		c20,137,39,253,43,256c9,9,518,51,527,43c3-3,23-114,43-246c20-131,37-240,38-241c3-3,441,37,444,40c2,2-105,649-163,976
		c-110,629-276,1558-280,1573c-5,16-29,17-328,17h-323L1732,2798z M2175,1858c54-340,95-621,92-625c-8-8-398-36-405-29
		c-5,6,1,47,119,796c43,277,79,509,80,515C2064,2546,2086,2415,2175,1858z"/>
	<path class="st0" d="M3060,1705V430h23c12,0,111,5,220,12l197,12v400v400l67,118c37,65,70,115,74,111c7-8,275-638,354-833
		c26-63,53-126,60-140l13-25l223,9c123,4,225,9,226,10c4,4-207,490-395,911c-90,204-176,395-189,425l-25,56l123,219
		c131,236,438,779,471,833l20,32h-224h-223l-53-98c-29-53-158-293-285-532l-232-434l-3,532l-2,532h-220h-220V1705z"/>
	<path class="st0" d="M4718,1743l-3-1236l260,6c143,4,414,7,603,7h342v185v185h-380h-380v365v365h300h300v175v175h-300h-300v335v335
		h380h380v170v170h-600h-600L4718,1743z"/>
	<path class="st0" d="M6190,1751V523l31-7c17-3,116-6,220-6h189v527v526l285-6l285-6v179v180h-285h-285v366v367l363-4l362-4l3,173
		l2,172h-585h-585V1751z"/>
	<path class="st0" d="M7560,1726V471l53-5c28-3,171-12,317-21s373-25,505-36c132-10,252-19,268-19h27v194v193l-67,6
		c-38,3-200,14-360,24l-293,18v1077v1078h-225h-225V1726z"/>
	<path class="st0" d="M8920,1675V371l33-5c48-8,348-36,380-36h27v1325v1325h-220h-220V1675z"/>
	<path class="st0" d="M9642,2898c61-168,308-858,367-1032l62-179l-135-376c-182-506-356-1004-353-1007s412-53,413-51
		c0,1,81,246,179,544c99,299,182,540,186,535c8-9,165-523,273-893l82-284l228-34c125-18,229-31,232-28c9,9-220,755-396,1290l-88,269
		l15,41c33,93,443,1278,443,1283c0,2-93,3-206,2l-206-3l-166-492c-92-270-168-490-170-488s-77,223-166,492l-162,488l-232,3l-231,2
		L9642,2898z"/>
</g>
</svg>
